
<svg width="815px" height="358px" viewBox="0 0 815 358" version="1.1" xmlns="http://www.w3.org/2000/svg" xmlns:xlink="http://www.w3.org/1999/xlink">
    <g id="pages" stroke="none" stroke-width="1" fill="none" fill-rule="evenodd">
        <g id="Ikm" transform="translate(-376.000000, -20.000000)" fill="#FFFDFD">
            <g id="Group" transform="translate(376.000000, 20.025818)">
                <path d="M120.882772,8.69401889 C152.451056,2.8980063 194.611451,0 247.363958,0 C298.842111,0 415.498951,20.4681491 512,28.974182 C597.5,36.5105334 580.656219,46.7979552 626,36.5105334 C657.991634,29.252395 697.204414,32.6201788 743.638338,46.6138847 L743.638339,46.6138832 C746.610237,47.5095186 749.42514,48.8609398 751.982559,50.6199026 C827.416474,102.502466 834.641611,161.179856 773.657971,226.652072 C715.314638,289.289647 499.648725,279.926744 167.097413,281.341809 C159.004676,281.376245 130.593614,305.625117 81.8642278,354.088426 L81.8642306,354.088429 C77.5567178,358.372422 70.5919265,358.353355 66.3079341,354.045842 C64.1976393,351.923961 63.0429539,349.033869 63.1101449,346.042012 C63.9611115,308.150487 61.7565895,282.338494 56.496579,268.606034 C36.1616733,215.517112 4.54747351e-13,173.459123 4.54747351e-13,153.791716 C4.54747351e-13,153.791716 4.54747351e-13,153.791716 4.54747351e-13,153.791716 C4.46027889e-13,82.5919095 50.8535163,21.5515378 120.882769,8.69399893 Z" id="Rectangle"></path>
            </g>
        </g>
    </g>
</svg>