
<svg width="53px" height="50px" viewBox="0 0 53 50" version="1.1" xmlns="http://www.w3.org/2000/svg" xmlns:xlink="http://www.w3.org/1999/xlink">
    <g id="pages" stroke="none" stroke-width="1" fill="none" fill-rule="evenodd">
        <g id="Ikm" transform="translate(-974.000000, -990.000000)" fill="#E2E2E2" stroke="#11375C" stroke-width="2">
            <path d="M992.645574,992.055815 C993.062121,992.434836 993.299564,992.971914 993.299564,993.535092 L993.29952,998.168078 L1015.88912,1001.99799 C1019.4245,1002.59718 1022.35995,1005.04097 1023.59755,1008.38941 L1023.70231,1008.68718 L1024.30827,1010.5 C1025.89411,1015.24429 1025.25457,1020.45086 1022.56768,1024.67031 L1022.56768,1024.67031 L1015.98986,1035 L1017.00675,1029.56556 C1017.07107,1029.22182 1017.11731,1028.87494 1017.14529,1028.52636 C1017.58715,1023.02121 1013.48255,1018.20021 1007.97741,1017.75835 L1007.97741,1017.75835 L993.29952,1016.57908 L993.299564,1023.91619 C993.299564,1025.02076 992.404134,1025.91619 991.299564,1025.91619 C990.712154,1025.91619 990.154444,1025.65796 989.77444,1025.21002 L976.436396,1009.48756 C975.786178,1008.7211 975.805803,1007.59113 976.482245,1006.84772 L989.820288,992.189083 C990.563668,991.372101 991.828592,991.312435 992.645574,992.055815 Z" id="Combined-Shape"></path>
        </g>
    </g>
</svg>