
<svg width="178px" height="145px" viewBox="0 0 178 145" version="1.1" xmlns="http://www.w3.org/2000/svg" xmlns:xlink="http://www.w3.org/1999/xlink">
    <g id="pages" stroke="none" stroke-width="1" fill="none" fill-rule="evenodd">
        <g id="WNI-Menu" transform="translate(-875.000000, -406.000000)">
            <g id="Group-4" transform="translate(875.000000, 406.000000)">
                <rect id="Rectangle" stroke="#2F5B4F" stroke-width="3" fill="#619DAC" x="1.5" y="1.5" width="23" height="43" rx="5"></rect>
                <rect id="Rectangle" stroke="#2F5B4F" stroke-width="3" fill="#FFFFFF" transform="translate(90.767855, 76.218923) rotate(-25.000000) translate(-90.767855, -76.218923) " x="14.7678548" y="38.2189234" width="152" height="76" rx="8"></rect>
                <circle id="Oval" fill="#FFD5A7" cx="93" cy="76" r="16"></circle>
                <circle id="Oval" fill="#FFD5A7" cx="129.5" cy="59.5" r="6.5"></circle>
                <circle id="Oval" fill="#FFD5A7" cx="56.5" cy="93.5" r="6.5"></circle>
                <path d="M26,3.35689712 L69.4876585,3.35689712 C71.820396,3.35689712 74.120984,3.90096549 76.2066111,4.94586898 L105.691038,19.7176274 C107.66616,20.7071674 108.465132,23.1105006 107.475592,25.0856223 C107.061705,25.9117397 106.374576,26.5690909 105.530944,26.9459959 L94.5210124,31.8648455 C93.5475303,32.299763 92.4406981,32.3280276 91.4462868,31.9433633 L75.8135373,25.8962058 C72.0255314,24.4309058 67.7334212,25.2565435 64.7593674,28.022605 C61.9450536,30.640098 61.4085924,34.897098 63.4855243,38.1309788 L67.5930365,44.5265693 C70.630412,49.2559062 69.3819177,55.5407111 64.7675118,58.75 C60.4454234,61.755984 54.5048469,60.6890706 51.4988628,56.3669822 C51.399297,56.2238236 51.3036781,56.0779599 51.2121141,55.9295558 L44.9618333,45.7992913 C43.5048328,43.4378294 40.9282234,42 38.1534527,42 L26,42 L26,42 L26,3.35689712 Z" id="Path-2" stroke="#2F5B4F" stroke-width="3" fill="#E5E4E4"></path>
            </g>
        </g>
    </g>
</svg>