
<svg width="157px" height="156px" viewBox="0 0 157 156" version="1.1" xmlns="http://www.w3.org/2000/svg" xmlns:xlink="http://www.w3.org/1999/xlink">
    <g id="pages" stroke="none" stroke-width="1" fill="none" fill-rule="evenodd">
        <g id="WNI-Menu" transform="translate(-1164.000000, -388.000000)" stroke="#2F5B4F">
            <g id="Group-5" transform="translate(1164.718310, 388.000000)">
                <g id="Group" transform="translate(45.775741, 31.842459)" stroke-width="2">
                    <path d="M24.057744,18.5611195 L24.057744,19.6424632 C24.057744,23.7662286 21.2551216,27.3624342 17.2562898,28.3697994 L6.80145419,31.003528 C2.80262235,32.0108932 4.54187372e-13,35.6070988 4.54747351e-13,39.7308642 L4.54747351e-13,71.4020112 C4.59770816e-13,76.372574 4.02943725,80.4020112 9,80.4020112 L11.2020472,80.4020112 L11.2020472,80.4020112 L11.2020472,43.1494443" id="Path-4"></path>
                    <path d="M59.057744,18.5611195 L59.057744,19.6424632 C59.057744,23.7662286 56.2551216,27.3624342 52.2562898,28.3697994 L41.8014542,31.003528 C37.8026224,32.0108932 35,35.6070988 35,39.7308642 L35,71.4020112 C35,76.372574 39.0294373,80.4020112 44,80.4020112 L46.2020472,80.4020112 L46.2020472,80.4020112 L46.2020472,43.1494443" id="Path-4" transform="translate(47.028872, 49.481565) scale(-1, 1) translate(-47.028872, -49.481565) "></path>
                    <path d="M21.8962383,25.1575412 L27.5298891,31.9204944 C28.2368585,32.7691805 29.4979664,32.8840646 30.3466525,32.1770952 C30.4194057,32.1164906 30.4877631,32.0507958 30.551209,31.9805065 L36.7098902,25.1575412 L36.7098902,25.1575412" id="Path-5"></path>
                    <path d="M32.5059491,1 C34.4389457,1 36.1889457,1.78350169 37.4556966,3.05025253 C38.7224474,4.31700338 39.5059491,6.06700338 39.5059491,8 L39.5059491,8 L39.5059491,12.7520877 C39.5059503,14.2066381 39.0561378,15.5853853 38.2662819,16.7293473 C37.4764257,17.8733098 36.3465259,18.7824871 34.9863528,19.2978975 C32.0515129,20.4099962 30.0600921,21 29.0059491,21 C27.9518064,21 25.9603865,20.4099965 23.0255476,19.2978983 C21.6653748,18.7824888 20.5354753,17.8733122 19.7456189,16.7293504 C18.9557623,15.5853883 18.5059491,14.206641 18.5059491,12.7520903 L18.5059491,12.7520903 L18.5059491,8 C18.5059491,6.06700338 19.2894508,4.31700338 20.5562016,3.05025253 C21.8229525,1.78350169 23.5729525,1 25.5059491,1 L25.5059491,1 Z" id="Rectangle" fill="#F4F0F0"></path>
                    <polyline id="Path-6" points="29.0059491 33.6924404 29.3030643 80.4020112 47.8556968 80.4020112 11.2020472 80.4020112"></polyline>
                    <path d="M32.5059491,1.15754115 C34.4389457,1.15754115 36.1889457,1.94104284 37.4556966,3.20779368 C38.7224474,4.47454453 39.5059491,6.22454453 39.5059491,8.15730084 L39.5059491,8.15730084 L39.5050071,12.0773008 L27.4367191,6.09995931 C26.961953,5.87625203 26.4206278,5.84909303 25.9291295,6.01950084 L25.9291295,6.01950084 L18.9539967,9.14176999 L18.7254808,6.41045748 C19.1121482,4.90476902 19.9876301,3.59531996 21.1719627,2.66016187 C22.363908,1.71899275 23.8693935,1.15754115 25.5059491,1.15754115 L25.5059491,1.15754115 Z" id="Combined-Shape" fill="#649EAE"></path>
                </g>
                <path d="M35.9911207,14.5725637 C36.5980938,14.3702393 37.282251,14.3994674 37.8997241,14.7082039 C38.3835426,14.9501132 38.7758489,15.3424194 39.0177581,15.8262379 L39.0177581,15.8262379 L45.0456222,27.881966 C45.3543587,28.4994391 45.3835868,29.1835963 45.1812624,29.7905694 C44.9789381,30.3975425 44.5450613,30.9273314 43.9275882,31.236068 C43.5804496,31.4096373 43.1976669,31.5 42.8095542,31.5 L42.8095542,31.5 L30.7538261,31.5 C30.0634702,31.5 29.4384702,31.220178 28.9860591,30.767767 C28.5336481,30.3153559 28.2538261,29.6903559 28.2538261,29 C28.2538261,28.6118873 28.3441888,28.2291046 28.5177581,27.881966 L28.5177581,27.881966 L34.5456222,15.8262379 C34.8543587,15.2087648 35.3841477,14.774888 35.9911207,14.5725637 Z" id="Triangle" stroke-width="3" fill="#649EAE" transform="translate(36.781690, 20.500000) rotate(-132.000000) translate(-36.781690, -20.500000) "></path>
                <path d="M114.991121,130.572564 C115.598094,130.370239 116.282251,130.399467 116.899724,130.708204 C117.383543,130.950113 117.775849,131.342419 118.017758,131.826238 L118.017758,131.826238 L124.045622,143.881966 C124.354359,144.499439 124.383587,145.183596 124.181262,145.790569 C123.978938,146.397542 123.545061,146.927331 122.927588,147.236068 C122.58045,147.409637 122.197667,147.5 121.809554,147.5 L121.809554,147.5 L109.753826,147.5 C109.06347,147.5 108.43847,147.220178 107.986059,146.767767 C107.533648,146.315356 107.253826,145.690356 107.253826,145 C107.253826,144.611887 107.344189,144.229105 107.517758,143.881966 L107.517758,143.881966 L113.545622,131.826238 C113.854359,131.208765 114.384148,130.774888 114.991121,130.572564 Z" id="Triangle" stroke-width="3" fill="#649EAE" transform="translate(115.781690, 136.500000) rotate(46.000000) translate(-115.781690, -136.500000) "></path>
                <path d="M12.0562527,39.1983699 L17.7028008,45.468967 C12.4707933,55.1466159 9.5,66.2263391 9.5,78 C9.5,96.9157527 17.1671237,114.040753 29.5631855,126.436815 C41.9592473,138.832876 59.0842473,146.5 78,146.5 C87.223825,146.5 96.021722,144.676485 104.053235,141.371053 L104.053235,141.371053 L109.701139,147.643391 C100.042664,152.047027 89.3077719,154.5 78,154.5 C56.8751083,154.5 37.7501083,145.937446 23.9063312,132.093669 C10.0625542,118.249892 1.5,99.1248917 1.5,78 C1.5,63.8377706 5.34799032,50.5742012 12.0562527,39.1983699 L12.0562527,39.1983699 Z M78,1.5 C99.1248917,1.5 118.249892,10.0625542 132.093669,23.9063312 C145.937446,37.7501083 154.5,56.8751083 154.5,78 C154.5,93.681953 149.781705,108.261986 141.686611,120.39735 L141.686611,120.39735 L136.140334,114.237925 C142.705509,103.72656 146.5,91.3064525 146.5,78 C146.5,59.0842473 138.832876,41.9592473 126.436815,29.5631855 C114.040753,17.1671237 96.9157527,9.5 78,9.5 C67.2531897,9.5 57.0845625,11.9752719 48.0326294,16.3859485 L48.0326294,16.3859485 L42.4851891,10.2255695 C53.0981569,4.65259135 65.1809488,1.5 78,1.5 Z" id="Combined-Shape" stroke-width="3" fill="#FFFBFB"></path>
            </g>
        </g>
    </g>
</svg>