
<svg width="28px" height="28px" viewBox="0 0 28 28" version="1.1" xmlns="http://www.w3.org/2000/svg" xmlns:xlink="http://www.w3.org/1999/xlink">
    <g id="pages" stroke="none" stroke-width="1" fill="none" fill-rule="evenodd">
        <g id="WNI-Tarif-Copy" transform="translate(-1770.000000, -166.000000)" fill="#4D4D4D">
            <g id="Group" transform="translate(1770.090097, 166.590097)">
                <path d="M13.5,-2.19777054 C15.3745166,-2.19777054 16.8941125,-0.678174593 16.8941125,1.19634201 L16.8941125,25.803658 C16.8941125,27.6781746 15.3745166,29.1977705 13.5,29.1977705 C11.6254834,29.1977705 10.1058875,27.6781746 10.1058875,25.803658 L10.1058875,1.19634201 C10.1058875,-0.678174593 11.6254834,-2.19777054 13.5,-2.19777054 Z" id="Rectangle" transform="translate(13.500000, 13.500000) rotate(45.000000) translate(-13.500000, -13.500000) "></path>
                <path d="M13.5,-2.19777054 C15.3745166,-2.19777054 16.8941125,-0.678174593 16.8941125,1.19634201 L16.8941125,25.803658 C16.8941125,27.6781746 15.3745166,29.1977705 13.5,29.1977705 C11.6254834,29.1977705 10.1058875,27.6781746 10.1058875,25.803658 L10.1058875,1.19634201 C10.1058875,-0.678174593 11.6254834,-2.19777054 13.5,-2.19777054 Z" id="Rectangle" transform="translate(13.500000, 13.500000) rotate(135.000000) translate(-13.500000, -13.500000) "></path>
            </g>
        </g>
    </g>
</svg>