
<svg width="57px" height="41px" viewBox="0 0 57 41" version="1.1" xmlns="http://www.w3.org/2000/svg" xmlns:xlink="http://www.w3.org/1999/xlink">
    <g id="pages" stroke="none" stroke-width="1" fill="none" fill-rule="evenodd">
        <g id="Ikm" transform="translate(-881.000000, -994.000000)">
            <g id="Group-2" transform="translate(881.000000, 994.000000)">
                <path d="M53,0 C55.209139,-4.05812251e-16 57,1.790861 57,4 L57,37 C57,39.209139 55.209139,41 53,41 L4,41 C1.790861,41 2.705415e-16,39.209139 0,37 L0,4 C-2.705415e-16,1.790861 1.790861,4.05812251e-16 4,0 L53,0 Z M53,2 L4,2 C2.8954305,2 2,2.8954305 2,4 L2,4 L2,35 C2,36.1045695 2.8954305,37 4,37 L4,37 L53,37 C54.1045695,37 55,36.1045695 55,35 L55,35 L55,4 C55,2.8954305 54.1045695,2 53,2 L53,2 Z" id="Combined-Shape" fill="#11375C"></path>
                <rect id="Rectangle" fill="#ACACAC" x="5" y="5" width="46" height="4" rx="2"></rect>
                <rect id="Rectangle" fill="#D8D8D8" x="19" y="31" width="5" height="4" rx="2"></rect>
                <rect id="Rectangle" fill="#D8D8D8" x="26" y="31" width="5" height="4" rx="2"></rect>
                <rect id="Rectangle" fill="#D8D8D8" x="33" y="31" width="5" height="4" rx="2"></rect>
                <rect id="Rectangle" stroke="#979797" fill="#FFFFFF" x="19.9545455" y="19.5" width="17.4242424" height="8" rx="2"></rect>
                <path d="M28.969697,21.7941176 C29.3839105,21.7941176 29.7589105,21.9620109 30.0303571,22.2334575 C30.3018038,22.5049041 30.469697,22.8799041 30.469697,23.2941176 L30.469697,23.2941176 L30.469697,27.5 L26.8636364,27.5 L26.8636364,23.2941176 C26.8636364,22.8799041 27.0315296,22.5049041 27.3029762,22.2334575 C27.5744228,21.9620109 27.9494228,21.7941176 28.3636364,21.7941176 L28.3636364,21.7941176 Z" id="Rectangle" stroke="#979797" fill="#D8D8D8"></path>
                <path d="M28.6666667,12.180167 C29.1739119,12.180167 29.6811571,12.3341833 30.1146845,12.6422159 L30.1146845,12.6422159 L38.4890314,18.5924098 L19.1339055,19.5 L27.2186488,12.6422159 C27.6521763,12.3341833 28.1594215,12.180167 28.6666667,12.180167 Z" id="Triangle" stroke="#979797" fill="#D8D8D8"></path>
            </g>
        </g>
    </g>
</svg>